# xmcd CD database file
#
# Track frame offsets:
#	150
#	21542
#	45575
#
# Disc length: 891 seconds
#
# Revision: 0
# Processed by: cddbd v1.5PL3 Copyright (c) Steve Scherf et al.
# Submitted via: CDex 1.50beta9
#
DISCID=20037903
DTITLE=井上武英 - 君と僕の愛の歌は
DYEAR=1993
DGENRE=JPop
TTITLE0=君と僕の愛の歌は
TTITLE1=最後のわがまま
TTITLE2=君と僕の愛の歌は　カラオケ
EXTD=YEAR: 1993
EXTT0=
EXTT1=
EXTT2=
PLAYORDER=
